# xmcd
#
# Track frame offsets:
#	150
#	22615
#	42830
#	59362
#	78809
#	93286
#	119342
#	139593
#	163891
#	208228
#	224511
#	244536
#
# Disc length: 3586 seconds
#
# Revision: 16
# Processed by: cddbd v1.5.2PL0 Copyright (c) Steve Scherf et al.
# Submitted via: Jack! The Knife 20 Magnifico
#
DISCID=9c0e000c
DTITLE=Rage - The Missing Link
DYEAR=1993
DGENRE=Metal
TTITLE0=Firestorm
TTITLE1=Nevermore
TTITLE2=Refuge
TTITLE3=The Pit And The Pendulum
TTITLE4=From The Underworld
TTITLE5=Certain Days
TTITLE6=Who Dares
TTITLE7=Wake Me When I'm Dead
TTITLE8=Lost In The Ice
TTITLE9=Her Diary's Black Pages
TTITLE10=The Missing Link
TTITLE11=Raw Caress
EXTD=Sven Conquest
EXTT0=Schmidt, Wagner
EXTT1=Peter Wagner
EXTT2=Peter Wagner
EXTT3=Peter Wagner
EXTT4=Schmidt, Wagner
EXTT5=Peter Wagner
EXTT6=Efthimiadis, Wagner
EXTT7=Peter Wagner
EXTT8=Peter Wagner
EXTT9=Peter Wagner
EXTT10=Efthimiadis, Schmidt, Wagner
EXTT11=Peter Wagner
PLAYORDER=
